PathFileType	4	(X/Y/Z)	c:/Users/goper/Files/vsCode/490R/osim_files/C06/C06_SSWS_02.trc
DataRate	CameraRate	NumFrames	NumMarkers	Units                	OrigDataRate	OrigDataStartFrame	OrigNumFrames
250.00	250.00	4	36	mm	250.0	2199	2931
                Frame#	Time	LPSIS			LASIS			LTH1			LTH2			LTH3			LTH4			LLFE			LMFE			LSH1			LSH2			LSH3			LSH4			LLMAL			LMMAL			LCAL			LMTP5			LTOE			LMTP1			RPSIS			RASIS			RTH1			RTH2			RTH3			RTH4			RLFE			RMFE			RSH1			RSH2			RSH3			RSH4			RLMAL			RMMAL			RCAL			RMTP1			RTOE			RMTP5		
		X1	Y1	Z1	X2	Y2	Z2	X3	Y3	Z3	X4	Y4	Z4	X5	Y5	Z5	X6	Y6	Z6	X7	Y7	Z7	X8	Y8	Z8	X9	Y9	Z9	X10	Y10	Z10	X11	Y11	Z11	X12	Y12	Z12	X13	Y13	Z13	X14	Y14	Z14	X15	Y15	Z15	X16	Y16	Z16	X17	Y17	Z17	X18	Y18	Z18	X19	Y19	Z19	X20	Y20	Z20	X21	Y21	Z21	X22	Y22	Z22	X23	Y23	Z23	X24	Y24	Z24	X25	Y25	Z25	X26	Y26	Z26	X27	Y27	Z27	X28	Y28	Z28	X29	Y29	Z29	X30	Y30	Z30	X31	Y31	Z31	X32	Y32	Z32	X33	Y33	Z33	X34	Y34	Z34	X35	Y35	Z35	X36	Y36	Z36

2199	8.79200	-2105.99902	974.20477	147.39555	-2277.81128	937.87402	249.62154	-2167.39233	745.01721	315.60806	-2167.04297	679.70148	306.27771	-2235.95874	737.50586	299.63446	-2232.63403	673.27356	288.89230	-2111.41895	440.35733	271.12640	-2124.21680	411.20734	161.24355	-1981.39136	415.11569	275.57675	-1953.27246	380.38568	271.96655	-2025.69543	369.17459	285.23212	-1992.87805	344.88297	284.17340	-1793.35547	205.54726	223.63071	-1826.18384	210.90469	151.70740	-1761.19775	262.77042	178.28136	-1764.44189	78.30540	231.40054	-1809.48901	39.26606	171.69714	-1795.63123	71.89045	121.82191	-2102.17310	974.69086	74.88989	-2288.62549	959.95270	13.85989	-2265.26807	755.26257	-73.17294	-2293.27100	700.03345	-62.88128	-2332.12549	786.28174	-51.54641	-2349.66406	725.94421	-46.90747	-2408.30103	457.77600	6.67180	-2411.07617	479.77112	112.49349	-2364.64087	378.40161	-17.57098	-2368.70044	330.29245	-14.98486	-2422.23389	373.88525	3.54840	-2416.42969	329.06793	2.59767	-2371.62231	88.53983	44.14998	-2383.30615	113.56341	119.68125	-2303.75537	67.09080	91.29948	-2508.95312	38.15889	132.93614	-2529.13696	57.63304	88.00671	-2487.10254	34.49106	20.24430
2200	8.79600	-2109.60132	975.69727	147.24603	-2283.32739	939.01434	249.14720	-2170.15771	745.62109	313.73798	-2169.42163	682.84570	310.38577	-2244.22998	738.56848	298.34680	-2234.14038	678.11627	297.47131	-2121.61792	440.11270	271.74182	-2135.12109	410.67935	161.90895	-1991.85754	415.53040	276.14542	-1963.89697	381.25702	272.65308	-2035.86768	369.35031	286.08182	-2003.48401	345.65552	285.34546	-1802.40906	208.17593	224.22638	-1835.19153	212.75378	151.98369	-1772.74512	266.32953	178.52373	-1769.57251	82.10188	232.02463	-1813.19836	40.81130	172.16025	-1800.47632	73.94744	122.38995	-2107.93921	975.72821	74.43245	-2294.02222	960.78119	13.37862	-2269.51318	756.01630	-73.27130	-2297.20068	701.45374	-65.38859	-2336.83081	786.36920	-52.05078	-2354.93311	726.56500	-47.38045	-2410.30688	457.53802	6.55916	-2412.37427	479.50031	112.71152	-2365.63867	378.30441	-17.20170	-2369.86255	330.14819	-14.62771	-2423.63330	373.47601	3.43324	-2417.80225	326.22626	4.07966	-2371.67871	88.55920	44.27947	-2383.52295	113.53759	119.81836	-2303.75635	67.08894	91.34141	-2508.98193	38.11648	132.96078	-2529.18872	57.54063	88.05497	-2487.08057	34.45888	20.25980
2201	8.80000	-2115.52783	976.64954	146.81732	-2288.72949	940.15826	248.70239	-2177.08105	746.00555	313.46271	-2176.87988	683.23065	310.26956	-2251.54419	740.23938	297.62445	-2241.15869	678.85541	296.74734	-2132.05200	439.84396	272.31097	-2145.82837	410.38425	162.48630	-2002.41614	416.02927	276.75769	-1974.53552	381.99521	273.34888	-2046.21191	369.43277	286.81683	-2013.61633	345.90344	286.03699	-1811.79187	210.79889	224.80833	-1844.45959	214.50053	152.26405	-1784.15015	269.51794	178.66341	-1775.55371	85.56724	232.57472	-1817.62646	42.71033	172.61078	-1805.56763	75.68868	123.04610	-2112.90991	977.10651	74.12831	-2299.41138	961.54071	12.97268	-2273.69556	756.44812	-73.53846	-2300.91284	702.27234	-66.33208	-2340.57617	785.83795	-51.70479	-2358.88403	726.48938	-47.56962	-2412.10107	457.26389	6.45682	-2414.19971	479.26852	112.79153	-2366.77808	378.25427	-16.93639	-2370.42920	330.07938	-14.18724	-2424.91235	373.07275	3.29340	-2419.99023	326.67435	3.94373	-2371.73560	88.56175	44.39228	-2383.76904	113.49485	119.90581	-2303.74878	67.09881	91.36880	-2509.03052	38.08057	132.96951	-2529.21948	57.45665	88.05054	-2487.07275	34.45258	20.21821
2202	8.80400	-2120.21265	977.82672	146.39716	-2294.04004	941.36639	248.33904	-2183.87012	746.44080	313.11951	-2182.85913	682.56866	307.63440	-2258.52075	741.48279	297.46860	-2248.79492	679.97272	296.85568	-2142.55347	439.67398	272.87323	-2156.44189	410.32159	162.95457	-2013.10095	416.35120	277.38278	-1984.78027	382.44214	273.94696	-2056.58887	369.59399	287.47089	-2023.77441	346.20255	286.70627	-1821.48694	213.38524	225.26607	-1853.83582	216.15250	152.53368	-1795.36389	272.43484	178.59393	-1781.73376	88.85905	233.05943	-1822.35266	44.38565	173.25198	-1811.06555	77.23867	123.88644	-2118.16187	978.34161	73.73679	-2304.71436	962.31079	12.63420	-2277.70190	757.13800	-73.63828	-2304.20532	702.51489	-65.54897	-2344.95532	785.91669	-52.00681	-2362.56836	726.36096	-47.82279	-2413.85693	457.01596	6.31790	-2416.43311	479.30676	112.95551	-2367.88550	378.18109	-16.69526	-2371.24097	329.96896	-13.92094	-2426.11987	372.72568	3.12185	-2420.93970	326.37305	3.91234	-2371.92700	88.58218	44.41888	-2383.97192	113.44210	119.99976	-2303.68848	67.12384	91.37646	-2509.04028	38.00722	132.97096	-2529.27905	57.38408	88.05761	-2487.07666	34.40651	20.22163
